<svg xmlns="http://www.w3.org/2000/svg" version="1.1" xmlns:xlink="http://www.w3.org/1999/xlink" xmlns:svgjs="http://svgjs.dev/svgjs" width="2000" height="414" viewBox="0 0 2000 414"><g transform="matrix(1,0,0,1,-1.2121212121212466,-1.0277392871880409)"><svg viewBox="0 0 396 82" data-background-color="#ffffff" preserveAspectRatio="xMidYMid meet" height="414" width="2000" xmlns="http://www.w3.org/2000/svg" xmlns:xlink="http://www.w3.org/1999/xlink"><g id="tight-bounds" transform="matrix(1,0,0,1,0.2400000000000091,0.2035618878005323)"><svg viewBox="0 0 395.52 81.59287622439892" height="81.59287622439892" width="395.52"><g><svg viewBox="0 0 395.52 81.59287622439892" height="81.59287622439892" width="395.52"><g><svg viewBox="0 0 395.52 81.59287622439892" height="81.59287622439892" width="395.52"><g id="textblocktransform"><svg viewBox="0 0 395.52 81.59287622439892" height="81.59287622439892" width="395.52" id="textblock"><g><svg viewBox="0 0 395.52 81.59287622439892" height="81.59287622439892" width="395.52"><g transform="matrix(1,0,0,1,0,0)"><svg width="395.52" viewBox="3.85 -33.9 168.44 34.75" height="81.59287622439892" data-palette-color="#27292a"><path d="M19.3 0L6.6 0 6.8-1.05 8-1.4Q9.95-1.9 10.3-3.95L10.3-3.95 12.15-13.45 6.75-29.5Q6.15-31.3 4.45-31.8L4.45-31.8 3.85-32 4.05-33.05 16.3-33.05 16.1-32 15.2-31.75Q13.45-31.3 13.95-29.55L13.95-29.55 18.05-15.9 26.6-29.7Q27-30.4 26.8-30.98 26.6-31.55 25.8-31.75L25.8-31.75 24.95-32 25.15-33.05 32.3-33.05 32.1-32 31.1-31.7Q29.25-31.2 28.3-29.6L28.3-29.6 18.75-14.25Q18.35-11.95 17.82-9.15 17.3-6.35 16.9-3.85L16.9-3.85Q16.5-1.95 18.45-1.35L18.45-1.35 19.55-1.05 19.3 0ZM43.15 0.85L43.15 0.85Q39.55 0.85 36.77-0.73 34-2.3 32.4-5.35 30.8-8.4 30.8-12.9L30.8-12.9Q30.8-17.05 32.1-20.83 33.4-24.6 35.82-27.55 38.25-30.5 41.62-32.2 45-33.9 49.15-33.9L49.15-33.9Q52.9-33.9 55.67-32.23 58.45-30.55 60-27.48 61.55-24.4 61.55-20.2L61.55-20.2Q61.55-15.95 60.25-12.15 58.95-8.35 56.52-5.43 54.1-2.5 50.72-0.83 47.35 0.85 43.15 0.85ZM43.65-0.65L43.65-0.65Q45.95-0.65 47.97-2.27 50-3.9 51.55-6.75 53.1-9.6 53.97-13.33 54.85-17.05 54.85-21.3L54.85-21.3Q54.85-26.65 53.45-29.53 52.05-32.4 48.8-32.4L48.8-32.4Q46.5-32.4 44.45-30.8 42.4-29.2 40.82-26.4 39.25-23.6 38.35-19.88 37.45-16.15 37.45-11.9L37.45-11.9Q37.45-6.5 38.95-3.58 40.45-0.65 43.65-0.65ZM76.4 0.85L76.4 0.85Q71.4 0.85 68.32-1.63 65.25-4.1 65.25-9.05L65.25-9.05Q65.25-10.15 65.4-11.35 65.55-12.55 65.75-13.8L65.75-13.8 66.5-17.9Q66.95-20.4 67.47-23.28 68-26.15 68.5-28.85L68.5-28.85Q68.85-31.2 66.6-31.9L66.6-31.9 66.2-32 66.4-33.05 78.75-33.05 78.55-32 78-31.85Q75.8-31.2 75.35-28.95L75.35-28.95 72.55-14.1Q72.35-12.95 72.2-11.78 72.05-10.6 72.05-9.35L72.05-9.35Q72.05-6.1 73.77-4.28 75.5-2.45 78.55-2.45L78.55-2.45Q82.5-2.45 84.77-5 87.05-7.55 87.95-12.3L87.95-12.3 91.1-28.9Q91.55-31.2 89.3-31.9L89.3-31.9 88.95-32 89.15-33.05 96.2-33.05 96-32 95.55-31.85Q93.34-31.25 92.9-28.95L92.9-28.95 89.75-11.8Q88.65-5.75 85.27-2.45 81.9 0.85 76.4 0.85ZM106.29 0L92.74 0 92.94-1.05 93.79-1.4Q95.59-2.1 95.94-4.05L95.94-4.05 98.54-17.55Q99.09-20.3 99.59-23.23 100.09-26.15 100.59-28.95L100.59-28.95Q100.94-31.05 98.94-31.8L98.94-31.8 98.44-32 98.69-33.05 110.59-33.05Q114.49-33.05 116.79-32 119.09-30.95 120.12-29.28 121.14-27.6 121.14-25.6L121.14-25.6Q121.14-22.75 118.67-20.43 116.19-18.1 111.29-17.5L111.29-17.5Q116.19-16.85 118.42-14.5 120.64-12.15 120.64-9.2L120.64-9.2Q120.64-6.75 119.14-4.65 117.64-2.55 114.49-1.28 111.34 0 106.29 0L106.29 0ZM107.64-31.6L105.09-18.1 106.99-18.1Q110.84-18.1 112.79-20.08 114.74-22.05 114.74-25.6L114.74-25.6Q114.74-28.45 113.37-30.03 111.99-31.6 109.34-31.6L109.34-31.6 107.64-31.6ZM102.14-1.45L102.14-1.45 105.24-1.45Q109.69-1.45 111.87-3.85 114.04-6.25 114.04-10.05L114.04-10.05Q114.04-16.7 107.34-16.7L107.34-16.7 104.84-16.7 104.59-15.5Q103.99-12 103.34-8.5 102.69-5 102.14-1.45ZM133.54 0L121.79 0 121.99-1.05 123.24-1.5Q123.94-1.7 124.37-2.23 124.79-2.75 124.94-3.4L124.94-3.4 127.59-17.55Q128.09-20.3 128.67-23.48 129.24-26.65 129.69-29.55L129.69-29.55Q129.84-30.25 129.47-30.88 129.09-31.5 128.39-31.7L128.39-31.7 127.49-32 127.74-33.05 139.49-33.05 139.24-32 138.04-31.6Q136.59-31.2 136.34-29.7L136.34-29.7 133.64-15.5Q133.14-12.75 132.59-9.6 132.04-6.45 131.49-3.6L131.49-3.6Q131.39-2.85 131.74-2.25 132.09-1.65 132.74-1.4L132.74-1.4 133.79-1.05 133.54 0ZM163.29 0.25L160.59 0.25 146.44-26.55 142.19-4.05Q141.79-2 143.79-1.3L143.79-1.3 144.69-1.05 144.49 0 136.89 0 137.09-1.05 138.14-1.4Q140.14-2 140.49-4L140.49-4 145.29-29.25 144.84-30.1Q144.49-30.8 144.04-31.18 143.59-31.55 142.89-31.9L142.89-31.9 142.54-32 142.74-33.05 150.29-33.05 163.24-8.75 167.09-29.2Q167.44-31.15 165.59-31.75L165.59-31.75 164.84-32 165.04-33.05 172.29-33.05 172.09-32 171.09-31.7Q169.14-31.1 168.79-29.15L168.79-29.15 163.29 0.25Z" opacity="1" transform="matrix(1,0,0,1,0,0)" fill="#27292a" class="wordmark-text-0" data-fill-palette-color="primary" id="text-0"></path></svg></g></svg></g></svg></g></svg></g><g></g></svg></g><defs></defs></svg><rect width="395.52" height="81.59287622439892" fill="none" stroke="none" visibility="hidden"></rect></g></svg></g></svg>