<svg width="1184" height="1046" viewBox="0 0 1184 1046" fill="none" xmlns="http://www.w3.org/2000/svg">
<path d="M57.2301 879.5H49.7443C49.3016 877.347 48.5269 875.455 47.4201 873.825C46.3335 872.195 45.0053 870.827 43.4357 869.72C41.8862 868.593 40.1657 867.748 38.2741 867.185C36.3826 866.621 34.4105 866.339 32.358 866.339C28.6151 866.339 25.2243 867.285 22.1857 869.177C19.1673 871.068 16.7625 873.855 14.9716 877.538C13.2008 881.221 12.3153 885.738 12.3153 891.091C12.3153 896.444 13.2008 900.961 14.9716 904.644C16.7625 908.326 19.1673 911.113 22.1857 913.005C25.2243 914.897 28.6151 915.842 32.358 915.842C34.4105 915.842 36.3826 915.561 38.2741 914.997C40.1657 914.434 41.8862 913.599 43.4357 912.492C45.0053 911.365 46.3335 909.987 47.4201 908.357C48.5269 906.706 49.3016 904.815 49.7443 902.682H57.2301C56.6667 905.841 55.6404 908.668 54.1513 911.164C52.6622 913.659 50.8108 915.782 48.5973 917.533C46.3838 919.263 43.8986 920.581 41.1417 921.487C38.4049 922.392 35.477 922.845 32.358 922.845C27.0857 922.845 22.397 921.557 18.2919 918.982C14.1868 916.406 10.957 912.743 8.60263 907.994C6.24822 903.245 5.07102 897.611 5.07102 891.091C5.07102 884.571 6.24822 878.937 8.60263 874.188C10.957 869.438 14.1868 865.776 18.2919 863.2C22.397 860.625 27.0857 859.337 32.358 859.337C35.477 859.337 38.4049 859.789 41.1417 860.695C43.8986 861.6 46.3838 862.929 48.5973 864.679C50.8108 866.41 52.6622 868.523 54.1513 871.018C55.6404 873.493 56.6667 876.321 57.2301 879.5ZM97.5795 903.044V875.636H104.703V922H97.5795V914.152H97.0965C96.0099 916.506 94.3195 918.509 92.0255 920.159C89.7314 921.789 86.8337 922.604 83.3323 922.604C80.4346 922.604 77.8588 921.97 75.605 920.702C73.3512 919.414 71.5804 917.482 70.2925 914.907C69.0046 912.311 68.3607 909.041 68.3607 905.097V875.636H75.4843V904.614C75.4843 907.994 76.4301 910.691 78.3216 912.703C80.2333 914.715 82.6682 915.722 85.6263 915.722C87.3972 915.722 89.1982 915.269 91.0294 914.363C92.8807 913.458 94.4302 912.069 95.6778 910.198C96.9456 908.326 97.5795 905.942 97.5795 903.044ZM150.591 886.02L144.192 887.831C143.79 886.764 143.196 885.728 142.411 884.722C141.647 883.696 140.6 882.85 139.272 882.186C137.944 881.522 136.243 881.19 134.171 881.19C131.333 881.19 128.969 881.844 127.077 883.152C125.206 884.44 124.27 886.08 124.27 888.072C124.27 889.843 124.914 891.242 126.202 892.268C127.49 893.294 129.502 894.15 132.239 894.834L139.121 896.524C143.266 897.53 146.355 899.07 148.388 901.142C150.42 903.195 151.436 905.841 151.436 909.081C151.436 911.737 150.672 914.112 149.142 916.205C147.633 918.297 145.52 919.947 142.804 921.155C140.087 922.362 136.928 922.966 133.326 922.966C128.597 922.966 124.683 921.94 121.584 919.887C118.485 917.835 116.523 914.836 115.698 910.892L122.459 909.202C123.103 911.697 124.321 913.568 126.112 914.816C127.923 916.064 130.287 916.688 133.205 916.688C136.525 916.688 139.161 915.983 141.113 914.575C143.085 913.146 144.071 911.435 144.071 909.443C144.071 907.833 143.508 906.485 142.381 905.398C141.254 904.292 139.524 903.467 137.189 902.923L129.462 901.112C125.216 900.106 122.097 898.547 120.105 896.434C118.133 894.301 117.147 891.634 117.147 888.435C117.147 885.819 117.881 883.504 119.35 881.492C120.839 879.48 122.862 877.9 125.417 876.753C127.993 875.606 130.911 875.033 134.171 875.033C138.759 875.033 142.361 876.039 144.977 878.051C147.613 880.063 149.484 882.72 150.591 886.02ZM182.323 875.636V881.673H158.296V875.636H182.323ZM165.299 864.528H172.422V908.719C172.422 910.731 172.714 912.24 173.298 913.246C173.901 914.232 174.666 914.897 175.592 915.239C176.537 915.561 177.534 915.722 178.58 915.722C179.365 915.722 180.009 915.681 180.512 915.601C181.015 915.5 181.417 915.42 181.719 915.359L183.168 921.759C182.685 921.94 182.011 922.121 181.146 922.302C180.28 922.503 179.184 922.604 177.856 922.604C175.843 922.604 173.871 922.171 171.939 921.306C170.028 920.44 168.438 919.122 167.17 917.352C165.923 915.581 165.299 913.347 165.299 910.651V864.528ZM211.376 922.966C207.19 922.966 203.518 921.97 200.358 919.978C197.219 917.985 194.764 915.198 192.993 911.616C191.242 908.035 190.367 903.849 190.367 899.06C190.367 894.23 191.242 890.014 192.993 886.412C194.764 882.81 197.219 880.013 200.358 878.021C203.518 876.029 207.19 875.033 211.376 875.033C215.561 875.033 219.224 876.029 222.363 878.021C225.522 880.013 227.977 882.81 229.728 886.412C231.499 890.014 232.384 894.23 232.384 899.06C232.384 903.849 231.499 908.035 229.728 911.616C227.977 915.198 225.522 917.985 222.363 919.978C219.224 921.97 215.561 922.966 211.376 922.966ZM211.376 916.567C214.555 916.567 217.171 915.752 219.224 914.122C221.276 912.492 222.795 910.349 223.782 907.692C224.768 905.036 225.261 902.159 225.261 899.06C225.261 895.961 224.768 893.073 223.782 890.397C222.795 887.72 221.276 885.557 219.224 883.907C217.171 882.257 214.555 881.432 211.376 881.432C208.196 881.432 205.58 882.257 203.528 883.907C201.475 885.557 199.956 887.72 198.97 890.397C197.984 893.073 197.491 895.961 197.491 899.06C197.491 902.159 197.984 905.036 198.97 907.692C199.956 910.349 201.475 912.492 203.528 914.122C205.58 915.752 208.196 916.567 211.376 916.567ZM243.258 922V875.636H250.14V882.881H250.744C251.71 880.406 253.269 878.484 255.423 877.115C257.576 875.727 260.162 875.033 263.18 875.033C266.239 875.033 268.784 875.727 270.817 877.115C272.869 878.484 274.469 880.406 275.616 882.881H276.099C277.286 880.486 279.067 878.584 281.442 877.176C283.816 875.747 286.664 875.033 289.984 875.033C294.129 875.033 297.52 876.331 300.156 878.926C302.792 881.502 304.11 885.517 304.11 890.97V922H296.987V890.97C296.987 887.549 296.051 885.104 294.18 883.635C292.308 882.166 290.105 881.432 287.569 881.432C284.309 881.432 281.784 882.418 279.993 884.39C278.202 886.342 277.306 888.817 277.306 891.815V922H270.062V890.246C270.062 887.61 269.207 885.487 267.496 883.877C265.786 882.247 263.583 881.432 260.886 881.432C259.035 881.432 257.304 881.925 255.694 882.911C254.105 883.897 252.817 885.265 251.831 887.016C250.865 888.747 250.382 890.749 250.382 893.023V922H243.258ZM317.135 922V875.636H324.259V922H317.135ZM320.757 867.909C319.369 867.909 318.171 867.436 317.165 866.49C316.179 865.545 315.686 864.408 315.686 863.08C315.686 861.751 316.179 860.614 317.165 859.669C318.171 858.723 319.369 858.25 320.757 858.25C322.146 858.25 323.333 858.723 324.319 859.669C325.325 860.614 325.828 861.751 325.828 863.08C325.828 864.408 325.325 865.545 324.319 866.49C323.333 867.436 322.146 867.909 320.757 867.909ZM335.978 922V916.567L362.299 882.76V882.277H336.823V875.636H371.475V881.311L345.878 914.876V915.359H372.32V922H335.978ZM401.403 922.966C396.936 922.966 393.082 921.98 389.842 920.008C386.623 918.016 384.138 915.239 382.387 911.677C380.656 908.095 379.791 903.929 379.791 899.18C379.791 894.431 380.656 890.246 382.387 886.624C384.138 882.981 386.572 880.144 389.691 878.112C392.831 876.059 396.493 875.033 400.679 875.033C403.093 875.033 405.478 875.435 407.832 876.24C410.187 877.045 412.33 878.353 414.262 880.164C416.194 881.955 417.733 884.33 418.88 887.288C420.027 890.246 420.601 893.888 420.601 898.214V901.233H384.862V895.075H413.356C413.356 892.459 412.833 890.125 411.787 888.072C410.76 886.02 409.291 884.4 407.38 883.213C405.488 882.025 403.254 881.432 400.679 881.432C397.841 881.432 395.386 882.136 393.314 883.545C391.261 884.933 389.681 886.744 388.575 888.978C387.468 891.212 386.915 893.606 386.915 896.162V900.267C386.915 903.768 387.518 906.737 388.726 909.172C389.953 911.586 391.653 913.428 393.827 914.695C396 915.943 398.526 916.567 401.403 916.567C403.275 916.567 404.965 916.305 406.474 915.782C408.004 915.239 409.322 914.434 410.428 913.367C411.535 912.281 412.39 910.932 412.994 909.322L419.876 911.254C419.152 913.589 417.934 915.641 416.224 917.412C414.513 919.163 412.4 920.531 409.885 921.517C407.37 922.483 404.542 922.966 401.403 922.966ZM448.944 922.966C445.08 922.966 441.669 921.99 438.711 920.038C435.753 918.066 433.439 915.289 431.769 911.707C430.099 908.105 429.264 903.849 429.264 898.939C429.264 894.069 430.099 889.843 431.769 886.261C433.439 882.679 435.763 879.913 438.742 877.961C441.72 876.009 445.161 875.033 449.065 875.033C452.083 875.033 454.468 875.536 456.218 876.542C457.989 877.528 459.338 878.655 460.263 879.923C461.209 881.17 461.944 882.196 462.467 883.001H463.07V860.182H470.194V922H463.312V914.876H462.467C461.944 915.722 461.199 916.788 460.233 918.076C459.267 919.344 457.889 920.481 456.098 921.487C454.307 922.473 451.922 922.966 448.944 922.966ZM449.91 916.567C452.767 916.567 455.182 915.822 457.154 914.333C459.126 912.824 460.625 910.741 461.652 908.085C462.678 905.408 463.191 902.32 463.191 898.818C463.191 895.357 462.688 892.328 461.682 889.733C460.676 887.117 459.187 885.084 457.215 883.635C455.243 882.166 452.808 881.432 449.91 881.432C446.891 881.432 444.376 882.207 442.364 883.756C440.372 885.285 438.872 887.368 437.866 890.004C436.88 892.62 436.387 895.558 436.387 898.818C436.387 902.118 436.89 905.117 437.896 907.813C438.923 910.49 440.432 912.623 442.424 914.212C444.436 915.782 446.932 916.567 449.91 916.567ZM518.64 922L504.514 875.636H512L522.021 911.134H522.504L532.405 875.636H540.011L549.791 911.013H550.274L560.295 875.636H567.781L553.655 922H546.652L536.51 886.382H535.785L525.643 922H518.64ZM595.06 922.966C590.593 922.966 586.739 921.98 583.5 920.008C580.28 918.016 577.795 915.239 576.044 911.677C574.313 908.095 573.448 903.929 573.448 899.18C573.448 894.431 574.313 890.246 576.044 886.624C577.795 882.981 580.23 880.144 583.349 878.112C586.488 876.059 590.15 875.033 594.336 875.033C596.751 875.033 599.135 875.435 601.49 876.24C603.844 877.045 605.987 878.353 607.919 880.164C609.851 881.955 611.39 884.33 612.537 887.288C613.684 890.246 614.258 893.888 614.258 898.214V901.233H578.519V895.075H607.013C607.013 892.459 606.49 890.125 605.444 888.072C604.418 886.02 602.949 884.4 601.037 883.213C599.145 882.025 596.912 881.432 594.336 881.432C591.499 881.432 589.044 882.136 586.971 883.545C584.918 884.933 583.339 886.744 582.232 888.978C581.125 891.212 580.572 893.606 580.572 896.162V900.267C580.572 903.768 581.175 906.737 582.383 909.172C583.61 911.586 585.311 913.428 587.484 914.695C589.657 915.943 592.183 916.567 595.06 916.567C596.932 916.567 598.622 916.305 600.131 915.782C601.661 915.239 602.979 914.434 604.086 913.367C605.192 912.281 606.048 910.932 606.651 909.322L613.533 911.254C612.809 913.589 611.592 915.641 609.881 917.412C608.171 919.163 606.058 920.531 603.542 921.517C601.027 922.483 598.2 922.966 595.06 922.966ZM626.06 922V860.182H633.184V883.001H633.787C634.31 882.196 635.035 881.17 635.961 879.923C636.906 878.655 638.255 877.528 640.005 876.542C641.776 875.536 644.171 875.033 647.189 875.033C651.093 875.033 654.534 876.009 657.512 877.961C660.491 879.913 662.815 882.679 664.485 886.261C666.155 889.843 666.99 894.069 666.99 898.939C666.99 903.849 666.155 908.105 664.485 911.707C662.815 915.289 660.501 918.066 657.543 920.038C654.585 921.99 651.174 922.966 647.31 922.966C644.332 922.966 641.947 922.473 640.156 921.487C638.365 920.481 636.987 919.344 636.021 918.076C635.055 916.788 634.31 915.722 633.787 914.876H632.942V922H626.06ZM633.063 898.818C633.063 902.32 633.576 905.408 634.602 908.085C635.629 910.741 637.128 912.824 639.1 914.333C641.072 915.822 643.487 916.567 646.344 916.567C649.322 916.567 651.808 915.782 653.8 914.212C655.812 912.623 657.321 910.49 658.327 907.813C659.354 905.117 659.867 902.118 659.867 898.818C659.867 895.558 659.364 892.62 658.358 890.004C657.372 887.368 655.872 885.285 653.86 883.756C651.868 882.207 649.363 881.432 646.344 881.432C643.446 881.432 641.011 882.166 639.039 883.635C637.067 885.084 635.578 887.117 634.572 889.733C633.566 892.328 633.063 895.357 633.063 898.818ZM719.3 922.966C715.437 922.966 712.026 921.99 709.068 920.038C706.11 918.066 703.796 915.289 702.125 911.707C700.455 908.105 699.62 903.849 699.62 898.939C699.62 894.069 700.455 889.843 702.125 886.261C703.796 882.679 706.12 879.913 709.098 877.961C712.076 876.009 715.517 875.033 719.421 875.033C722.44 875.033 724.824 875.536 726.575 876.542C728.346 877.528 729.694 878.655 730.62 879.923C731.565 881.17 732.3 882.196 732.823 883.001H733.427V860.182H740.55V922H733.668V914.876H732.823C732.3 915.722 731.555 916.788 730.589 918.076C729.624 919.344 728.245 920.481 726.454 921.487C724.663 922.473 722.279 922.966 719.3 922.966ZM720.266 916.567C723.124 916.567 725.539 915.822 727.511 914.333C729.483 912.824 730.982 910.741 732.008 908.085C733.034 905.408 733.548 902.32 733.548 898.818C733.548 895.357 733.045 892.328 732.038 889.733C731.032 887.117 729.543 885.084 727.571 883.635C725.599 882.166 723.164 881.432 720.266 881.432C717.248 881.432 714.732 882.207 712.72 883.756C710.728 885.285 709.229 887.368 708.223 890.004C707.237 892.62 706.744 895.558 706.744 898.818C706.744 902.118 707.247 905.117 708.253 907.813C709.279 910.49 710.788 912.623 712.781 914.212C714.793 915.782 717.288 916.567 720.266 916.567ZM774.025 922.966C769.558 922.966 765.704 921.98 762.464 920.008C759.245 918.016 756.76 915.239 755.009 911.677C753.278 908.095 752.413 903.929 752.413 899.18C752.413 894.431 753.278 890.246 755.009 886.624C756.76 882.981 759.194 880.144 762.314 878.112C765.453 876.059 769.115 875.033 773.301 875.033C775.716 875.033 778.1 875.435 780.455 876.24C782.809 877.045 784.952 878.353 786.884 880.164C788.816 881.955 790.355 884.33 791.502 887.288C792.649 890.246 793.223 893.888 793.223 898.214V901.233H757.484V895.075H785.978C785.978 892.459 785.455 890.125 784.409 888.072C783.382 886.02 781.913 884.4 780.002 883.213C778.11 882.025 775.877 881.432 773.301 881.432C770.463 881.432 768.008 882.136 765.936 883.545C763.883 884.933 762.304 886.744 761.197 888.978C760.09 891.212 759.537 893.606 759.537 896.162V900.267C759.537 903.768 760.14 906.737 761.348 909.172C762.575 911.586 764.276 913.428 766.449 914.695C768.622 915.943 771.148 916.567 774.025 916.567C775.897 916.567 777.587 916.305 779.096 915.782C780.626 915.239 781.944 914.434 783.05 913.367C784.157 912.281 785.012 910.932 785.616 909.322L792.498 911.254C791.774 913.589 790.556 915.641 788.846 917.412C787.135 919.163 785.022 920.531 782.507 921.517C779.992 922.483 777.164 922.966 774.025 922.966ZM836.9 886.02L830.501 887.831C830.098 886.764 829.505 885.728 828.72 884.722C827.955 883.696 826.909 882.85 825.581 882.186C824.252 881.522 822.552 881.19 820.479 881.19C817.642 881.19 815.278 881.844 813.386 883.152C811.515 884.44 810.579 886.08 810.579 888.072C810.579 889.843 811.223 891.242 812.511 892.268C813.799 893.294 815.811 894.15 818.548 894.834L825.43 896.524C829.575 897.53 832.664 899.07 834.696 901.142C836.729 903.195 837.745 905.841 837.745 909.081C837.745 911.737 836.98 914.112 835.451 916.205C833.942 918.297 831.829 919.947 829.112 921.155C826.396 922.362 823.236 922.966 819.634 922.966C814.905 922.966 810.991 921.94 807.892 919.887C804.793 917.835 802.831 914.836 802.006 910.892L808.768 909.202C809.412 911.697 810.629 913.568 812.42 914.816C814.231 916.064 816.596 916.688 819.513 916.688C822.834 916.688 825.47 915.983 827.422 914.575C829.394 913.146 830.38 911.435 830.38 909.443C830.38 907.833 829.817 906.485 828.69 905.398C827.563 904.292 825.832 903.467 823.498 902.923L815.771 901.112C811.525 900.106 808.406 898.547 806.413 896.434C804.441 894.301 803.455 891.634 803.455 888.435C803.455 885.819 804.19 883.504 805.659 881.492C807.148 879.48 809.17 877.9 811.726 876.753C814.302 875.606 817.219 875.033 820.479 875.033C825.067 875.033 828.67 876.039 831.286 878.051C833.922 880.063 835.793 882.72 836.9 886.02ZM848.468 922V875.636H855.592V922H848.468ZM852.09 867.909C850.702 867.909 849.504 867.436 848.498 866.49C847.512 865.545 847.019 864.408 847.019 863.08C847.019 861.751 847.512 860.614 848.498 859.669C849.504 858.723 850.702 858.25 852.09 858.25C853.479 858.25 854.666 858.723 855.652 859.669C856.658 860.614 857.161 861.751 857.161 863.08C857.161 864.408 856.658 865.545 855.652 866.49C854.666 867.436 853.479 867.909 852.09 867.909ZM887.354 940.352C883.912 940.352 880.954 939.91 878.479 939.024C876.004 938.159 873.941 937.012 872.291 935.583C870.661 934.174 869.363 932.665 868.398 931.055L874.072 927.071C874.716 927.916 875.531 928.882 876.517 929.969C877.503 931.076 878.852 932.031 880.562 932.836C882.293 933.661 884.556 934.074 887.354 934.074C891.096 934.074 894.185 933.168 896.62 931.357C899.055 929.546 900.273 926.709 900.273 922.845V913.428H899.669C899.146 914.273 898.401 915.319 897.435 916.567C896.489 917.794 895.121 918.891 893.33 919.857C891.559 920.803 889.165 921.276 886.146 921.276C882.403 921.276 879.043 920.39 876.064 918.619C873.106 916.848 870.762 914.273 869.031 910.892C867.321 907.511 866.466 903.406 866.466 898.577C866.466 893.828 867.301 889.692 868.971 886.171C870.641 882.629 872.965 879.892 875.944 877.961C878.922 876.009 882.363 875.033 886.267 875.033C889.285 875.033 891.68 875.536 893.451 876.542C895.242 877.528 896.61 878.655 897.556 879.923C898.522 881.17 899.266 882.196 899.79 883.001H900.514V875.636H907.396V923.328C907.396 927.312 906.491 930.552 904.68 933.048C902.889 935.563 900.474 937.404 897.435 938.571C894.417 939.759 891.056 940.352 887.354 940.352ZM887.112 914.876C889.97 914.876 892.384 914.222 894.356 912.914C896.328 911.606 897.828 909.725 898.854 907.27C899.88 904.815 900.393 901.877 900.393 898.456C900.393 895.116 899.89 892.167 898.884 889.612C897.878 887.056 896.389 885.054 894.417 883.605C892.445 882.156 890.01 881.432 887.112 881.432C884.094 881.432 881.578 882.196 879.566 883.726C877.574 885.255 876.075 887.308 875.068 889.884C874.082 892.459 873.589 895.317 873.589 898.456C873.589 901.676 874.092 904.523 875.099 906.998C876.125 909.453 877.634 911.385 879.626 912.794C881.639 914.182 884.134 914.876 887.112 914.876ZM927.559 894.109V922H920.436V875.636H927.318V882.881H927.922C929.008 880.526 930.658 878.635 932.872 877.206C935.086 875.757 937.943 875.033 941.444 875.033C944.584 875.033 947.33 875.677 949.685 876.964C952.039 878.232 953.87 880.164 955.178 882.76C956.486 885.336 957.14 888.596 957.14 892.54V922H950.017V893.023C950.017 889.38 949.071 886.543 947.18 884.511C945.288 882.458 942.692 881.432 939.392 881.432C937.118 881.432 935.086 881.925 933.295 882.911C931.524 883.897 930.125 885.336 929.099 887.227C928.073 889.119 927.559 891.413 927.559 894.109ZM26.6832 978.636V984.673H2.65625V978.636H26.6832ZM9.65909 967.528H16.7827V1011.72C16.7827 1013.73 17.0745 1015.24 17.658 1016.25C18.2617 1017.23 19.0264 1017.9 19.9521 1018.24C20.8978 1018.56 21.8939 1018.72 22.9403 1018.72C23.7251 1018.72 24.3691 1018.68 24.8722 1018.6C25.3752 1018.5 25.7777 1018.42 26.0795 1018.36L27.5284 1024.76C27.0455 1024.94 26.3713 1025.12 25.506 1025.3C24.6407 1025.5 23.544 1025.6 22.2159 1025.6C20.2036 1025.6 18.2315 1025.17 16.2997 1024.31C14.388 1023.44 12.7983 1022.12 11.5305 1020.35C10.2829 1018.58 9.65909 1016.35 9.65909 1013.65V967.528ZM45.5185 997.109V1025H38.3949V963.182H45.5185V985.881H46.1222C47.2088 983.486 48.8388 981.584 51.0121 980.176C53.2055 978.747 56.1233 978.033 59.7656 978.033C62.925 978.033 65.6919 978.667 68.0664 979.934C70.4409 981.182 72.2822 983.104 73.5902 985.7C74.9183 988.275 75.5824 991.555 75.5824 995.54V1025H68.4588V996.023C68.4588 992.34 67.503 989.493 65.5913 987.48C63.6997 985.448 61.0736 984.432 57.7131 984.432C55.3788 984.432 53.286 984.925 51.4347 985.911C49.6035 986.897 48.1546 988.336 47.0881 990.227C46.0417 992.119 45.5185 994.413 45.5185 997.109ZM102.258 1026.09C99.3201 1026.09 96.6538 1025.53 94.2591 1024.43C91.8645 1023.3 89.9629 1021.68 88.5542 1019.57C87.1456 1017.43 86.4413 1014.86 86.4413 1011.84C86.4413 1009.18 86.9645 1007.03 88.0109 1005.38C89.0573 1003.71 90.4559 1002.4 92.2066 1001.46C93.9573 1000.51 95.8891 999.806 98.002 999.343C100.135 998.86 102.278 998.478 104.431 998.196C107.249 997.834 109.533 997.562 111.283 997.381C113.054 997.18 114.342 996.848 115.147 996.385C115.972 995.922 116.384 995.117 116.384 993.97V993.729C116.384 990.75 115.57 988.436 113.94 986.786C112.33 985.136 109.885 984.311 106.605 984.311C103.204 984.311 100.538 985.056 98.6057 986.545C96.6739 988.034 95.3156 989.624 94.5308 991.314L87.7694 988.899C88.9768 986.082 90.5867 983.888 92.599 982.319C94.6314 980.729 96.845 979.622 99.2396 978.999C101.654 978.355 104.029 978.033 106.363 978.033C107.852 978.033 109.563 978.214 111.495 978.576C113.447 978.918 115.328 979.632 117.139 980.719C118.97 981.806 120.49 983.446 121.697 985.639C122.904 987.833 123.508 990.771 123.508 994.453V1025H116.384V1018.72H116.022C115.539 1019.73 114.734 1020.8 113.608 1021.95C112.481 1023.1 110.981 1024.07 109.11 1024.88C107.239 1025.68 104.955 1026.09 102.258 1026.09ZM103.345 1019.69C106.162 1019.69 108.536 1019.13 110.468 1018.03C112.42 1016.92 113.889 1015.49 114.875 1013.74C115.881 1011.99 116.384 1010.15 116.384 1008.22V1001.7C116.083 1002.06 115.419 1002.39 114.392 1002.69C113.386 1002.98 112.219 1003.23 110.891 1003.45C109.583 1003.65 108.305 1003.83 107.057 1003.99C105.83 1004.13 104.834 1004.25 104.069 1004.35C102.218 1004.6 100.487 1004.99 98.8774 1005.53C97.2877 1006.05 95.9998 1006.85 95.0138 1007.92C94.0479 1008.96 93.5649 1010.39 93.5649 1012.2C93.5649 1014.68 94.4805 1016.55 96.3117 1017.82C98.163 1019.06 100.507 1019.69 103.345 1019.69ZM156.673 978.636V984.673H132.646V978.636H156.673ZM139.649 967.528H146.773V1011.72C146.773 1013.73 147.065 1015.24 147.648 1016.25C148.252 1017.23 149.017 1017.9 149.942 1018.24C150.888 1018.56 151.884 1018.72 152.931 1018.72C153.715 1018.72 154.359 1018.68 154.862 1018.6C155.365 1018.5 155.768 1018.42 156.07 1018.36L157.519 1024.76C157.036 1024.94 156.362 1025.12 155.496 1025.3C154.631 1025.5 153.534 1025.6 152.206 1025.6C150.194 1025.6 148.222 1025.17 146.29 1024.31C144.378 1023.44 142.789 1022.12 141.521 1020.35C140.273 1018.58 139.649 1016.35 139.649 1013.65V967.528ZM210.131 1025.97C205.784 1025.97 202.041 1024.94 198.902 1022.89C195.763 1020.83 193.348 1018.01 191.657 1014.41C189.967 1010.8 189.122 1006.69 189.122 1002.06C189.122 997.351 189.987 993.195 191.718 989.593C193.469 985.971 195.903 983.144 199.023 981.112C202.162 979.059 205.824 978.033 210.01 978.033C213.27 978.033 216.208 978.636 218.824 979.844C221.44 981.051 223.583 982.741 225.253 984.915C226.923 987.088 227.96 989.624 228.362 992.521H221.238C220.695 990.408 219.488 988.537 217.616 986.907C215.765 985.257 213.27 984.432 210.131 984.432C207.354 984.432 204.919 985.156 202.826 986.605C200.753 988.034 199.133 990.056 197.966 992.672C196.819 995.268 196.246 998.317 196.246 1001.82C196.246 1005.4 196.809 1008.52 197.936 1011.18C199.083 1013.83 200.693 1015.89 202.765 1017.36C204.858 1018.83 207.313 1019.57 210.131 1019.57C211.982 1019.57 213.662 1019.24 215.171 1018.6C216.681 1017.96 217.958 1017.03 219.005 1015.82C220.051 1014.62 220.796 1013.17 221.238 1011.48H228.362C227.96 1014.21 226.963 1016.68 225.374 1018.87C223.804 1021.05 221.721 1022.78 219.126 1024.06C216.55 1025.33 213.551 1025.97 210.131 1025.97ZM257.611 1025.97C253.425 1025.97 249.753 1024.97 246.594 1022.98C243.454 1020.99 240.999 1018.2 239.229 1014.62C237.478 1011.03 236.602 1006.85 236.602 1002.06C236.602 997.23 237.478 993.014 239.229 989.412C240.999 985.81 243.454 983.013 246.594 981.021C249.753 979.029 253.425 978.033 257.611 978.033C261.797 978.033 265.459 979.029 268.598 981.021C271.758 983.013 274.213 985.81 275.963 989.412C277.734 993.014 278.619 997.23 278.619 1002.06C278.619 1006.85 277.734 1011.03 275.963 1014.62C274.213 1018.2 271.758 1020.99 268.598 1022.98C265.459 1024.97 261.797 1025.97 257.611 1025.97ZM257.611 1019.57C260.79 1019.57 263.406 1018.75 265.459 1017.12C267.512 1015.49 269.031 1013.35 270.017 1010.69C271.003 1008.04 271.496 1005.16 271.496 1002.06C271.496 998.961 271.003 996.073 270.017 993.397C269.031 990.72 267.512 988.557 265.459 986.907C263.406 985.257 260.79 984.432 257.611 984.432C254.432 984.432 251.816 985.257 249.763 986.907C247.71 988.557 246.191 990.72 245.205 993.397C244.219 996.073 243.726 998.961 243.726 1002.06C243.726 1005.16 244.219 1008.04 245.205 1010.69C246.191 1013.35 247.71 1015.49 249.763 1017.12C251.816 1018.75 254.432 1019.57 257.611 1019.57ZM296.617 997.109V1025H289.494V978.636H296.376V985.881H296.979C298.066 983.526 299.716 981.635 301.93 980.206C304.143 978.757 307.001 978.033 310.502 978.033C313.641 978.033 316.388 978.677 318.742 979.964C321.097 981.232 322.928 983.164 324.236 985.76C325.544 988.336 326.198 991.596 326.198 995.54V1025H319.074V996.023C319.074 992.38 318.129 989.543 316.237 987.511C314.346 985.458 311.75 984.432 308.449 984.432C306.176 984.432 304.143 984.925 302.352 985.911C300.581 986.897 299.183 988.336 298.157 990.227C297.13 992.119 296.617 994.413 296.617 997.109ZM372.056 989.02L365.657 990.831C365.254 989.764 364.661 988.728 363.876 987.722C363.111 986.696 362.065 985.85 360.737 985.186C359.409 984.522 357.708 984.19 355.636 984.19C352.798 984.19 350.434 984.844 348.542 986.152C346.671 987.44 345.735 989.08 345.735 991.072C345.735 992.843 346.379 994.242 347.667 995.268C348.955 996.294 350.967 997.15 353.704 997.834L360.586 999.524C364.731 1000.53 367.82 1002.07 369.853 1004.14C371.885 1006.19 372.901 1008.84 372.901 1012.08C372.901 1014.74 372.137 1017.11 370.607 1019.2C369.098 1021.3 366.985 1022.95 364.268 1024.15C361.552 1025.36 358.393 1025.97 354.79 1025.97C350.062 1025.97 346.148 1024.94 343.049 1022.89C339.95 1020.83 337.988 1017.84 337.163 1013.89L343.924 1012.2C344.568 1014.7 345.785 1016.57 347.576 1017.82C349.387 1019.06 351.752 1019.69 354.67 1019.69C357.99 1019.69 360.626 1018.98 362.578 1017.57C364.55 1016.15 365.536 1014.44 365.536 1012.44C365.536 1010.83 364.973 1009.49 363.846 1008.4C362.719 1007.29 360.988 1006.47 358.654 1005.92L350.927 1004.11C346.681 1003.11 343.562 1001.55 341.57 999.434C339.598 997.301 338.612 994.634 338.612 991.435C338.612 988.819 339.346 986.504 340.815 984.492C342.304 982.48 344.326 980.9 346.882 979.753C349.458 978.606 352.376 978.033 355.636 978.033C360.224 978.033 363.826 979.039 366.442 981.051C369.078 983.063 370.949 985.72 372.056 989.02ZM383.624 1025V978.636H390.748V1025H383.624ZM387.247 970.909C385.858 970.909 384.661 970.436 383.655 969.49C382.669 968.545 382.176 967.408 382.176 966.08C382.176 964.751 382.669 963.614 383.655 962.669C384.661 961.723 385.858 961.25 387.247 961.25C388.635 961.25 389.822 961.723 390.808 962.669C391.814 963.614 392.318 964.751 392.318 966.08C392.318 967.408 391.814 968.545 390.808 969.49C389.822 970.436 388.635 970.909 387.247 970.909ZM421.302 1025.97C417.439 1025.97 414.028 1024.99 411.07 1023.04C408.112 1021.07 405.798 1018.29 404.127 1014.71C402.457 1011.1 401.622 1006.85 401.622 1001.94C401.622 997.069 402.457 992.843 404.127 989.261C405.798 985.679 408.122 982.913 411.1 980.961C414.078 979.009 417.519 978.033 421.423 978.033C424.442 978.033 426.826 978.536 428.577 979.542C430.348 980.528 431.696 981.655 432.622 982.923C433.567 984.17 434.302 985.196 434.825 986.001H435.429V963.182H442.552V1025H435.67V1017.88H434.825C434.302 1018.72 433.557 1019.79 432.591 1021.08C431.626 1022.34 430.247 1023.48 428.456 1024.49C426.665 1025.47 424.281 1025.97 421.302 1025.97ZM422.268 1019.57C425.126 1019.57 427.541 1018.82 429.513 1017.33C431.485 1015.82 432.984 1013.74 434.01 1011.08C435.036 1008.41 435.55 1005.32 435.55 1001.82C435.55 998.357 435.046 995.328 434.04 992.733C433.034 990.117 431.545 988.084 429.573 986.635C427.601 985.166 425.166 984.432 422.268 984.432C419.25 984.432 416.734 985.207 414.722 986.756C412.73 988.285 411.231 990.368 410.225 993.004C409.239 995.62 408.746 998.558 408.746 1001.82C408.746 1005.12 409.249 1008.12 410.255 1010.81C411.281 1013.49 412.79 1015.62 414.782 1017.21C416.795 1018.78 419.29 1019.57 422.268 1019.57ZM476.027 1025.97C471.56 1025.97 467.706 1024.98 464.466 1023.01C461.247 1021.02 458.762 1018.24 457.011 1014.68C455.28 1011.09 454.415 1006.93 454.415 1002.18C454.415 997.431 455.28 993.246 457.011 989.624C458.762 985.981 461.196 983.144 464.316 981.112C467.455 979.059 471.117 978.033 475.303 978.033C477.718 978.033 480.102 978.435 482.456 979.24C484.811 980.045 486.954 981.353 488.886 983.164C490.818 984.955 492.357 987.33 493.504 990.288C494.651 993.246 495.225 996.888 495.225 1001.21V1004.23H459.486V998.075H487.98C487.98 995.459 487.457 993.125 486.411 991.072C485.384 989.02 483.915 987.4 482.004 986.213C480.112 985.025 477.878 984.432 475.303 984.432C472.465 984.432 470.01 985.136 467.938 986.545C465.885 987.933 464.305 989.744 463.199 991.978C462.092 994.212 461.539 996.606 461.539 999.162V1003.27C461.539 1006.77 462.142 1009.74 463.35 1012.17C464.577 1014.59 466.278 1016.43 468.451 1017.7C470.624 1018.94 473.15 1019.57 476.027 1019.57C477.899 1019.57 479.589 1019.31 481.098 1018.78C482.628 1018.24 483.946 1017.43 485.052 1016.37C486.159 1015.28 487.014 1013.93 487.618 1012.32L494.5 1014.25C493.776 1016.59 492.558 1018.64 490.848 1020.41C489.137 1022.16 487.024 1023.53 484.509 1024.52C481.994 1025.48 479.166 1025.97 476.027 1025.97ZM506.061 1025V978.636H512.943V985.639H513.426C514.271 983.345 515.8 981.484 518.014 980.055C520.228 978.626 522.723 977.912 525.5 977.912C526.023 977.912 526.677 977.922 527.462 977.942C528.247 977.962 528.84 977.992 529.243 978.033V985.277C529.001 985.217 528.448 985.126 527.583 985.005C526.737 984.864 525.842 984.794 524.896 984.794C522.642 984.794 520.63 985.267 518.859 986.213C517.108 987.138 515.72 988.426 514.694 990.076C513.688 991.706 513.184 993.568 513.184 995.661V1025H506.061ZM570.528 989.02L564.129 990.831C563.726 989.764 563.133 988.728 562.348 987.722C561.583 986.696 560.537 985.85 559.209 985.186C557.88 984.522 556.18 984.19 554.107 984.19C551.27 984.19 548.906 984.844 547.014 986.152C545.142 987.44 544.207 989.08 544.207 991.072C544.207 992.843 544.851 994.242 546.139 995.268C547.426 996.294 549.439 997.15 552.176 997.834L559.058 999.524C563.203 1000.53 566.292 1002.07 568.324 1004.14C570.357 1006.19 571.373 1008.84 571.373 1012.08C571.373 1014.74 570.608 1017.11 569.079 1019.2C567.57 1021.3 565.457 1022.95 562.74 1024.15C560.024 1025.36 556.864 1025.97 553.262 1025.97C548.533 1025.97 544.619 1024.94 541.52 1022.89C538.421 1020.83 536.459 1017.84 535.634 1013.89L542.396 1012.2C543.04 1014.7 544.257 1016.57 546.048 1017.82C547.859 1019.06 550.224 1019.69 553.141 1019.69C556.462 1019.69 559.098 1018.98 561.05 1017.57C563.022 1016.15 564.008 1014.44 564.008 1012.44C564.008 1010.83 563.444 1009.49 562.318 1008.4C561.191 1007.29 559.46 1006.47 557.126 1005.92L549.399 1004.11C545.153 1003.11 542.033 1001.55 540.041 999.434C538.069 997.301 537.083 994.634 537.083 991.435C537.083 988.819 537.818 986.504 539.287 984.492C540.776 982.48 542.798 980.9 545.354 979.753C547.93 978.606 550.847 978.033 554.107 978.033C558.695 978.033 562.297 979.039 564.913 981.051C567.55 983.063 569.421 985.72 570.528 989.02ZM647.536 963.182H655.022V1004.11C655.022 1008.34 654.026 1012.11 652.034 1015.43C650.062 1018.73 647.275 1021.34 643.673 1023.25C640.071 1025.14 635.845 1026.09 630.995 1026.09C626.146 1026.09 621.92 1025.14 618.318 1023.25C614.716 1021.34 611.919 1018.73 609.926 1015.43C607.954 1012.11 606.968 1008.34 606.968 1004.11V963.182H614.454V1003.51C614.454 1006.53 615.118 1009.21 616.446 1011.57C617.774 1013.9 619.666 1015.74 622.121 1017.09C624.596 1018.42 627.554 1019.08 630.995 1019.08C634.436 1019.08 637.394 1018.42 639.869 1017.09C642.345 1015.74 644.236 1013.9 645.544 1011.57C646.872 1009.21 647.536 1006.53 647.536 1003.51V963.182ZM677.457 963.182V1025H669.971V963.182H677.457ZM713.354 960.284L693.432 1034.3H686.912L706.834 960.284H713.354ZM763.332 963.182H770.818V1004.11C770.818 1008.34 769.822 1012.11 767.83 1015.43C765.858 1018.73 763.071 1021.34 759.469 1023.25C755.867 1025.14 751.641 1026.09 746.791 1026.09C741.941 1026.09 737.716 1025.14 734.114 1023.25C730.512 1021.34 727.714 1018.73 725.722 1015.43C723.75 1012.11 722.764 1008.34 722.764 1004.11V963.182H730.25V1003.51C730.25 1006.53 730.914 1009.21 732.242 1011.57C733.57 1013.9 735.462 1015.74 737.917 1017.09C740.392 1018.42 743.35 1019.08 746.791 1019.08C750.232 1019.08 753.19 1018.42 755.665 1017.09C758.141 1015.74 760.032 1013.9 761.34 1011.57C762.668 1009.21 763.332 1006.53 763.332 1003.51V963.182ZM789.389 963.182L805.327 988.899H805.81L821.747 963.182H830.561L811.122 994.091L830.561 1025H821.747L805.81 999.766H805.327L789.389 1025H780.575L800.497 994.091L780.575 963.182H789.389Z" fill="black" fill-opacity="0.4"/>
<path d="M45.3835 194L3.7642 48.5455H37.358L61.4347 149.611H62.642L89.2045 48.5455H117.969L144.46 149.824H145.739L169.815 48.5455H203.409L161.79 194H131.818L104.119 98.9006H102.983L75.3551 194H45.3835ZM257.298 196.131C246.076 196.131 236.417 193.858 228.32 189.312C220.271 184.72 214.068 178.233 209.712 169.852C205.356 161.424 203.178 151.457 203.178 139.952C203.178 128.73 205.356 118.882 209.712 110.406C214.068 101.931 220.2 95.3258 228.107 90.5909C236.062 85.8561 245.389 83.4886 256.09 83.4886C263.287 83.4886 269.987 84.6487 276.19 86.9688C282.44 89.2415 287.885 92.6742 292.525 97.267C297.212 101.86 300.858 107.636 303.462 114.597C306.067 121.509 307.369 129.606 307.369 138.886V147.196H215.252V128.446H278.888C278.888 124.09 277.942 120.231 276.048 116.869C274.154 113.508 271.526 110.88 268.164 108.986C264.85 107.045 260.991 106.074 256.587 106.074C251.995 106.074 247.923 107.139 244.371 109.27C240.868 111.353 238.121 114.17 236.133 117.722C234.144 121.225 233.126 125.132 233.079 129.44V147.267C233.079 152.665 234.073 157.329 236.062 161.259C238.098 165.188 240.962 168.219 244.656 170.349C248.349 172.48 252.728 173.545 257.795 173.545C261.156 173.545 264.234 173.072 267.028 172.125C269.821 171.178 272.212 169.758 274.201 167.864C276.19 165.97 277.705 163.65 278.746 160.903L306.729 162.75C305.309 169.473 302.397 175.345 297.994 180.364C293.638 185.335 288.003 189.218 281.09 192.011C274.225 194.758 266.294 196.131 257.298 196.131ZM357.369 48.5455V194H327.113V48.5455H357.369ZM430.895 196.131C419.721 196.131 410.109 193.763 402.06 189.028C394.058 184.246 387.902 177.617 383.594 169.142C379.332 160.667 377.202 150.913 377.202 139.881C377.202 128.706 379.356 118.905 383.665 110.477C388.021 102.002 394.2 95.3968 402.202 90.6619C410.204 85.8797 419.721 83.4886 430.753 83.4886C440.27 83.4886 448.603 85.2169 455.753 88.6733C462.902 92.1297 468.561 96.983 472.727 103.233C476.894 109.483 479.19 116.822 479.616 125.25H451.065C450.26 119.805 448.13 115.425 444.673 112.111C441.264 108.749 436.79 107.068 431.25 107.068C426.562 107.068 422.467 108.347 418.963 110.903C415.507 113.413 412.808 117.082 410.866 121.912C408.925 126.741 407.955 132.589 407.955 139.455C407.955 146.415 408.902 152.333 410.795 157.21C412.737 162.087 415.459 165.804 418.963 168.361C422.467 170.918 426.562 172.196 431.25 172.196C434.706 172.196 437.808 171.486 440.554 170.065C443.348 168.645 445.644 166.585 447.443 163.886C449.29 161.14 450.497 157.849 451.065 154.014H479.616C479.143 162.348 476.87 169.687 472.798 176.031C468.774 182.329 463.21 187.253 456.108 190.804C449.006 194.355 440.601 196.131 430.895 196.131ZM548.278 196.131C537.246 196.131 527.705 193.787 519.656 189.099C511.654 184.365 505.475 177.783 501.119 169.355C496.763 160.88 494.585 151.055 494.585 139.881C494.585 128.612 496.763 118.763 501.119 110.335C505.475 101.86 511.654 95.2784 519.656 90.5909C527.705 85.8561 537.246 83.4886 548.278 83.4886C559.31 83.4886 568.827 85.8561 576.829 90.5909C584.878 95.2784 591.081 101.86 595.437 110.335C599.793 118.763 601.971 128.612 601.971 139.881C601.971 151.055 599.793 160.88 595.437 169.355C591.081 177.783 584.878 184.365 576.829 189.099C568.827 193.787 559.31 196.131 548.278 196.131ZM548.42 172.693C553.439 172.693 557.629 171.273 560.991 168.432C564.353 165.544 566.886 161.614 568.59 156.642C570.342 151.67 571.218 146.012 571.218 139.668C571.218 133.323 570.342 127.665 568.59 122.693C566.886 117.722 564.353 113.792 560.991 110.903C557.629 108.015 553.439 106.571 548.42 106.571C543.353 106.571 539.092 108.015 535.636 110.903C532.227 113.792 529.646 117.722 527.894 122.693C526.19 127.665 525.337 133.323 525.337 139.668C525.337 146.012 526.19 151.67 527.894 156.642C529.646 161.614 532.227 165.544 535.636 168.432C539.092 171.273 543.353 172.693 548.42 172.693ZM621.644 194V84.9091H650.479V104.156H651.758C654.031 97.7642 657.818 92.7216 663.121 89.0284C668.424 85.3352 674.769 83.4886 682.156 83.4886C689.637 83.4886 696.005 85.3589 701.261 89.0994C706.516 92.7926 710.02 97.8116 711.772 104.156H712.908C715.134 97.9062 719.158 92.911 724.982 89.1705C730.853 85.3826 737.79 83.4886 745.792 83.4886C755.972 83.4886 764.234 86.732 770.579 93.2188C776.971 99.6581 780.167 108.796 780.167 120.634V194H749.982V126.599C749.982 120.539 748.372 115.993 745.153 112.963C741.933 109.933 737.908 108.418 733.079 108.418C727.586 108.418 723.301 110.17 720.224 113.673C717.146 117.13 715.607 121.699 715.607 127.381V194H686.275V125.96C686.275 120.61 684.736 116.348 681.658 113.176C678.628 110.004 674.627 108.418 669.656 108.418C666.294 108.418 663.263 109.27 660.565 110.974C657.913 112.632 655.806 114.975 654.244 118.006C652.681 120.989 651.9 124.492 651.9 128.517V194H621.644ZM853.782 196.131C842.56 196.131 832.901 193.858 824.805 189.312C816.755 184.72 810.553 178.233 806.197 169.852C801.841 161.424 799.663 151.457 799.663 139.952C799.663 128.73 801.841 118.882 806.197 110.406C810.553 101.931 816.684 95.3258 824.592 90.5909C832.546 85.8561 841.874 83.4886 852.575 83.4886C859.772 83.4886 866.471 84.6487 872.674 86.9688C878.924 89.2415 884.369 92.6742 889.009 97.267C893.697 101.86 897.343 107.636 899.947 114.597C902.551 121.509 903.853 129.606 903.853 138.886V147.196H811.737V128.446H875.373C875.373 124.09 874.426 120.231 872.532 116.869C870.638 113.508 868.01 110.88 864.648 108.986C861.334 107.045 857.475 106.074 853.072 106.074C848.479 106.074 844.407 107.139 840.856 109.27C837.352 111.353 834.606 114.17 832.617 117.722C830.629 121.225 829.611 125.132 829.563 129.44V147.267C829.563 152.665 830.558 157.329 832.546 161.259C834.582 165.188 837.447 168.219 841.14 170.349C844.833 172.48 849.213 173.545 854.279 173.545C857.641 173.545 860.719 173.072 863.512 172.125C866.306 171.178 868.697 169.758 870.685 167.864C872.674 165.97 874.189 163.65 875.231 160.903L903.214 162.75C901.793 169.473 898.881 175.345 894.478 180.364C890.122 185.335 884.487 189.218 877.575 192.011C870.709 194.758 862.778 196.131 853.782 196.131ZM70.0994 326.909V349.636H4.40341V326.909H70.0994ZM19.3182 300.773H49.5739V402.477C49.5739 405.271 50 407.449 50.8523 409.011C51.7045 410.527 52.8883 411.592 54.4034 412.207C55.9659 412.823 57.7652 413.131 59.8011 413.131C61.2216 413.131 62.642 413.012 64.0625 412.776C65.483 412.491 66.572 412.278 67.3295 412.136L72.0881 434.651C70.5729 435.124 68.4422 435.669 65.696 436.284C62.9498 436.947 59.6117 437.349 55.6818 437.491C48.3902 437.776 41.9981 436.805 36.5057 434.58C31.0606 432.354 26.8229 428.898 23.7926 424.21C20.7623 419.523 19.2708 413.604 19.3182 406.455V300.773ZM137.926 438.131C126.894 438.131 117.353 435.787 109.304 431.099C101.302 426.365 95.1231 419.783 90.767 411.355C86.411 402.88 84.233 393.055 84.233 381.881C84.233 370.612 86.411 360.763 90.767 352.335C95.1231 343.86 101.302 337.278 109.304 332.591C117.353 327.856 126.894 325.489 137.926 325.489C148.958 325.489 158.475 327.856 166.477 332.591C174.527 337.278 180.729 343.86 185.085 352.335C189.441 360.763 191.619 370.612 191.619 381.881C191.619 393.055 189.441 402.88 185.085 411.355C180.729 419.783 174.527 426.365 166.477 431.099C158.475 435.787 148.958 438.131 137.926 438.131ZM138.068 414.693C143.087 414.693 147.277 413.273 150.639 410.432C154.001 407.544 156.534 403.614 158.239 398.642C159.991 393.67 160.866 388.012 160.866 381.668C160.866 375.323 159.991 369.665 158.239 364.693C156.534 359.722 154.001 355.792 150.639 352.903C147.277 350.015 143.087 348.571 138.068 348.571C133.002 348.571 128.741 350.015 125.284 352.903C121.875 355.792 119.295 359.722 117.543 364.693C115.838 369.665 114.986 375.323 114.986 381.668C114.986 388.012 115.838 393.67 117.543 398.642C119.295 403.614 121.875 407.544 125.284 410.432C128.741 413.273 133.002 414.693 138.068 414.693ZM12.0739 678V568.909H40.9091V588.156H42.1875C44.4602 581.764 48.2481 576.722 53.5511 573.028C58.8542 569.335 65.1989 567.489 72.5852 567.489C80.0663 567.489 86.4347 569.359 91.6903 573.099C96.946 576.793 100.45 581.812 102.202 588.156H103.338C105.563 581.906 109.588 576.911 115.412 573.17C121.283 569.383 128.22 567.489 136.222 567.489C146.402 567.489 154.664 570.732 161.009 577.219C167.401 583.658 170.597 592.796 170.597 604.634V678H140.412V610.599C140.412 604.539 138.802 599.993 135.582 596.963C132.363 593.933 128.338 592.418 123.509 592.418C118.016 592.418 113.731 594.17 110.653 597.673C107.576 601.13 106.037 605.699 106.037 611.381V678H76.7045V609.96C76.7045 604.61 75.1657 600.348 72.0881 597.176C69.0578 594.004 65.0568 592.418 60.0852 592.418C56.7235 592.418 53.6932 593.27 50.9943 594.974C48.3428 596.632 46.2358 598.975 44.6733 602.006C43.1108 604.989 42.3295 608.492 42.3295 612.517V678H12.0739ZM209.268 718.909C205.433 718.909 201.835 718.601 198.473 717.986C195.159 717.418 192.412 716.684 190.234 715.784L197.053 693.199C200.604 694.288 203.8 694.88 206.641 694.974C209.529 695.069 212.015 694.406 214.098 692.986C216.229 691.565 217.957 689.151 219.283 685.741L221.058 681.125L181.925 568.909H213.743L236.328 649.023H237.464L260.263 568.909H292.294L249.893 689.79C247.857 695.661 245.088 700.775 241.584 705.131C238.127 709.534 233.748 712.92 228.445 715.287C223.142 717.702 216.75 718.909 209.268 718.909ZM354.066 718.909V568.909H383.896V587.233H385.245C386.571 584.297 388.488 581.314 390.998 578.284C393.555 575.206 396.869 572.65 400.941 570.614C405.06 568.53 410.174 567.489 416.282 567.489C424.237 567.489 431.576 569.572 438.299 573.739C445.022 577.858 450.397 584.084 454.421 592.418C458.446 600.704 460.458 611.097 460.458 623.597C460.458 635.765 458.493 646.04 454.563 654.42C450.681 662.754 445.378 669.075 438.654 673.384C431.978 677.645 424.497 679.776 416.211 679.776C410.34 679.776 405.344 678.805 401.225 676.864C397.153 674.922 393.815 672.484 391.211 669.548C388.607 666.565 386.618 663.559 385.245 660.528H384.322V718.909H354.066ZM383.683 623.455C383.683 629.941 384.582 635.599 386.381 640.429C388.181 645.259 390.785 649.023 394.194 651.722C397.603 654.373 401.746 655.699 406.623 655.699C411.547 655.699 415.714 654.349 419.123 651.651C422.532 648.904 425.112 645.116 426.864 640.287C428.664 635.41 429.563 629.799 429.563 623.455C429.563 617.157 428.687 611.617 426.935 606.835C425.183 602.053 422.603 598.312 419.194 595.614C415.785 592.915 411.594 591.565 406.623 591.565C401.699 591.565 397.532 592.867 394.123 595.472C390.761 598.076 388.181 601.769 386.381 606.551C384.582 611.333 383.683 616.968 383.683 623.455ZM529.918 680.131C518.886 680.131 509.345 677.787 501.296 673.099C493.294 668.365 487.115 661.783 482.759 653.355C478.403 644.88 476.225 635.055 476.225 623.881C476.225 612.612 478.403 602.763 482.759 594.335C487.115 585.86 493.294 579.278 501.296 574.591C509.345 569.856 518.886 567.489 529.918 567.489C540.951 567.489 550.468 569.856 558.469 574.591C566.519 579.278 572.721 585.86 577.077 594.335C581.433 602.763 583.612 612.612 583.612 623.881C583.612 635.055 581.433 644.88 577.077 653.355C572.721 661.783 566.519 668.365 558.469 673.099C550.468 677.787 540.951 680.131 529.918 680.131ZM530.06 656.693C535.079 656.693 539.27 655.273 542.631 652.432C545.993 649.544 548.526 645.614 550.231 640.642C551.983 635.67 552.859 630.012 552.859 623.668C552.859 617.323 551.983 611.665 550.231 606.693C548.526 601.722 545.993 597.792 542.631 594.903C539.27 592.015 535.079 590.571 530.06 590.571C524.994 590.571 520.733 592.015 517.276 594.903C513.867 597.792 511.287 601.722 509.535 606.693C507.83 611.665 506.978 617.323 506.978 623.668C506.978 630.012 507.83 635.67 509.535 640.642C511.287 645.614 513.867 649.544 517.276 652.432C520.733 655.273 524.994 656.693 530.06 656.693ZM603.285 678V568.909H632.617V587.943H633.754C635.742 581.172 639.08 576.059 643.768 572.602C648.455 569.098 653.853 567.347 659.961 567.347C661.476 567.347 663.11 567.441 664.862 567.631C666.613 567.82 668.152 568.08 669.478 568.412V595.259C668.058 594.832 666.093 594.454 663.583 594.122C661.074 593.791 658.777 593.625 656.694 593.625C652.243 593.625 648.266 594.596 644.762 596.537C641.306 598.431 638.559 601.082 636.523 604.491C634.535 607.901 633.54 611.83 633.54 616.281V678H603.285ZM748.615 568.909V591.636H682.919V568.909H748.615ZM697.834 542.773H728.089V644.477C728.089 647.271 728.516 649.449 729.368 651.011C730.22 652.527 731.404 653.592 732.919 654.207C734.482 654.823 736.281 655.131 738.317 655.131C739.737 655.131 741.158 655.012 742.578 654.776C743.999 654.491 745.088 654.278 745.845 654.136L750.604 676.651C749.089 677.124 746.958 677.669 744.212 678.284C741.465 678.947 738.127 679.349 734.197 679.491C726.906 679.776 720.514 678.805 715.021 676.58C709.576 674.354 705.339 670.898 702.308 666.21C699.278 661.523 697.786 655.604 697.834 648.455V542.773ZM826.989 568.909V591.636H759.659V568.909H826.989ZM775.071 678V561.026C775.071 553.118 776.61 546.561 779.688 541.352C782.812 536.144 787.074 532.238 792.472 529.634C797.869 527.029 804.001 525.727 810.866 525.727C815.507 525.727 819.744 526.082 823.58 526.793C827.462 527.503 830.35 528.142 832.244 528.71L826.847 551.438C825.663 551.059 824.195 550.704 822.443 550.372C820.739 550.041 818.987 549.875 817.188 549.875C812.737 549.875 809.635 550.917 807.884 553C806.132 555.036 805.256 557.901 805.256 561.594V678H775.071ZM890.856 680.131C879.824 680.131 870.283 677.787 862.234 673.099C854.232 668.365 848.053 661.783 843.697 653.355C839.341 644.88 837.163 635.055 837.163 623.881C837.163 612.612 839.341 602.763 843.697 594.335C848.053 585.86 854.232 579.278 862.234 574.591C870.283 569.856 879.824 567.489 890.856 567.489C901.888 567.489 911.405 569.856 919.407 574.591C927.456 579.278 933.659 585.86 938.015 594.335C942.371 602.763 944.549 612.612 944.549 623.881C944.549 635.055 942.371 644.88 938.015 653.355C933.659 661.783 927.456 668.365 919.407 673.099C911.405 677.787 901.888 680.131 890.856 680.131ZM890.998 656.693C896.017 656.693 900.207 655.273 903.569 652.432C906.931 649.544 909.464 645.614 911.168 640.642C912.92 635.67 913.796 630.012 913.796 623.668C913.796 617.323 912.92 611.665 911.168 606.693C909.464 601.722 906.931 597.792 903.569 594.903C900.207 592.015 896.017 590.571 890.998 590.571C885.932 590.571 881.67 592.015 878.214 594.903C874.805 597.792 872.224 601.722 870.472 606.693C868.768 611.665 867.915 617.323 867.915 623.668C867.915 630.012 868.768 635.67 870.472 640.642C872.224 645.614 874.805 649.544 878.214 652.432C881.67 655.273 885.932 656.693 890.998 656.693ZM994.478 532.545V678H964.222V532.545H994.478ZM1018.71 678V568.909H1048.97V678H1018.71ZM1033.91 554.847C1029.42 554.847 1025.56 553.355 1022.34 550.372C1019.16 547.342 1017.58 543.72 1017.58 539.506C1017.58 535.339 1019.16 531.764 1022.34 528.781C1025.56 525.751 1029.42 524.236 1033.91 524.236C1038.41 524.236 1042.25 525.751 1045.42 528.781C1048.64 531.764 1050.25 535.339 1050.25 539.506C1050.25 543.72 1048.64 547.342 1045.42 550.372C1042.25 553.355 1038.41 554.847 1033.91 554.847ZM1122.5 680.131C1111.46 680.131 1101.92 677.787 1093.87 673.099C1085.87 668.365 1079.69 661.783 1075.34 653.355C1070.98 644.88 1068.8 635.055 1068.8 623.881C1068.8 612.612 1070.98 602.763 1075.34 594.335C1079.69 585.86 1085.87 579.278 1093.87 574.591C1101.92 569.856 1111.46 567.489 1122.5 567.489C1133.53 567.489 1143.05 569.856 1151.05 574.591C1159.1 579.278 1165.3 585.86 1169.66 594.335C1174.01 602.763 1176.19 612.612 1176.19 623.881C1176.19 635.055 1174.01 644.88 1169.66 653.355C1165.3 661.783 1159.1 668.365 1151.05 673.099C1143.05 677.787 1133.53 680.131 1122.5 680.131ZM1122.64 656.693C1127.66 656.693 1131.85 655.273 1135.21 652.432C1138.57 649.544 1141.1 645.614 1142.81 640.642C1144.56 635.67 1145.44 630.012 1145.44 623.668C1145.44 617.323 1144.56 611.665 1142.81 606.693C1141.1 601.722 1138.57 597.792 1135.21 594.903C1131.85 592.015 1127.66 590.571 1122.64 590.571C1117.57 590.571 1113.31 592.015 1109.85 594.903C1106.45 597.792 1103.86 601.722 1102.11 606.693C1100.41 611.665 1099.56 617.323 1099.56 623.668C1099.56 630.012 1100.41 635.67 1102.11 640.642C1103.86 645.614 1106.45 649.544 1109.85 652.432C1113.31 655.273 1117.57 656.693 1122.64 656.693Z" fill="black"/>
</svg>
