<svg width="1073" height="860" viewBox="0 0 1073 860" fill="none" xmlns="http://www.w3.org/2000/svg">
<g clip-path="url(#clip0_3_2)">
<path d="M26.6657 857.91C26.6657 859.069 27.5968 860 28.7562 860H1070.91C1072.07 860 1073 859.069 1073 857.91C1073 856.75 1072.07 855.819 1070.91 855.819H28.7562C27.5968 855.819 26.6657 856.75 26.6657 857.91Z" fill="#2F2E43"/>
<path d="M567.08 651.617C564.219 668.962 549.125 682.236 530.982 682.236C512.84 682.236 497.746 668.962 494.884 651.617H402.531V851.761H659.434V651.617L567.08 651.617Z" fill="#B6B3C5"/>
<path d="M432.403 851.014H407.012V855.495H432.403V851.014Z" fill="#B6B3C5"/>
<path d="M657.194 851.761H631.802V856.242H657.194V851.761Z" fill="#B6B3C5"/>
<path d="M1047.64 656.845H14.3221C6.42483 656.845 0 650.42 0 642.523V52.8125C0 44.9157 6.42483 38.4905 14.3221 38.4905H1047.64C1055.54 38.4905 1061.97 44.9157 1061.97 52.8125V642.523C1061.97 650.42 1055.54 656.845 1047.64 656.845Z" fill="#2F2E41"/>
<path d="M1037.32 63.882H26.1384V634.441H1037.32V63.882Z" fill="white"/>
<path d="M917.187 283H862.012C857.217 283 853.317 279.1 853.317 274.305C853.317 269.51 857.217 265.61 862.012 265.61H917.187C921.981 265.61 925.882 269.51 925.882 274.305C925.882 279.1 921.981 283 917.187 283Z" fill="#D1D1D2"/>
<path d="M980.639 283H954.891C950.097 283 946.196 279.1 946.196 274.305C946.196 269.51 950.097 265.61 954.891 265.61H980.639C985.434 265.61 989.334 269.51 989.334 274.305C989.334 279.1 985.434 283 980.639 283Z" fill="#D1D1D2"/>
<path d="M364.764 289.64H196.821C188.248 289.64 181.273 282.665 181.273 274.092C181.273 265.519 188.248 258.544 196.821 258.544H364.764C373.337 258.544 380.312 265.519 380.312 274.092C380.312 282.665 373.337 289.64 364.764 289.64Z" fill="#3DCADA"/>
<path d="M273.71 331.119H192.774C187.548 331.119 183.296 326.868 183.296 321.642C183.296 316.416 187.548 312.164 192.774 312.164H273.71C278.936 312.164 283.188 316.416 283.188 321.642C283.188 326.868 278.936 331.119 273.71 331.119Z" fill="#D1D1D2"/>
<path d="M719.872 368.553H190.75C185.525 368.553 181.273 364.301 181.273 359.075C181.273 353.849 185.525 349.597 190.75 349.597H719.872C725.098 349.597 729.349 353.849 729.349 359.075C729.349 364.301 725.098 368.553 719.872 368.553Z" fill="#D1D1D2"/>
<path d="M674.345 393.845H190.75C185.525 393.845 181.273 389.593 181.273 384.367C181.273 379.141 185.525 374.89 190.75 374.89H674.345C679.571 374.89 683.822 379.141 683.822 384.367C683.822 389.593 679.571 393.845 674.345 393.845Z" fill="#D1D1D2"/>
<path d="M979.058 758.935L954.786 784.42L928.918 760.507L953.19 735.022L979.058 758.935Z" fill="#ED9DA0"/>
<path d="M998.445 785.037L946.852 839.21C942.442 843.841 936.934 847.499 930.924 849.79L916.54 855.272C913.566 856.406 910.142 855.749 907.816 853.599C905.089 851.078 904.399 847.039 906.138 843.777L919.973 817.824L934.737 765.192L934.898 765.291C938.914 767.764 945.006 771.475 945.441 771.632C953.086 771.903 958.559 769.98 961.71 765.919C967.205 758.834 963.719 747.524 963.683 747.411L963.655 747.324L963.725 747.264C965.327 745.897 967.014 745.349 968.74 745.638C972.404 746.25 975.025 750.366 975.409 750.999C978.847 750.854 989.404 759.122 990.253 759.792C995.436 759.778 999.235 761.007 1001.55 763.445C1003.57 765.576 1004.44 768.602 1004.16 772.438C1003.82 777.053 1001.79 781.527 998.445 785.037Z" fill="#090814"/>
<path d="M951.036 788.277H915.565V823.225H951.036V788.277Z" fill="#ED9DA0"/>
<path d="M944.982 855.015H869.582C863.137 855.015 856.661 853.561 850.852 850.81L836.952 844.227C834.078 842.866 832.221 839.956 832.221 836.814C832.221 833.13 834.738 829.87 838.342 828.888L867.02 821.07L916.079 795.664L916.116 795.847C917.033 800.425 918.455 807.341 918.636 807.76C923.667 813.439 928.835 816.055 933.997 815.54C943.001 814.64 948.987 804.397 949.046 804.293L949.092 804.214L949.183 804.223C951.292 804.438 952.852 805.276 953.819 806.714C955.873 809.765 954.62 814.464 954.414 815.173C956.874 817.544 957.978 830.786 958.063 831.855C961.62 835.569 963.31 839.14 963.086 842.468C962.89 845.378 961.252 848.08 958.218 850.5C954.568 853.411 949.867 855.015 944.982 855.015Z" fill="#090814"/>
<path d="M955.248 348.134L829.554 348.195L787.656 609.567L913.35 758.958L955.248 721.611L855.914 609.567L955.248 348.134Z" fill="#090814"/>
<path d="M880.955 386.663L955.248 348.134V796.306L913.35 797.456L880.955 386.663Z" fill="#090814"/>
<path d="M806.539 452.946L807.424 412.148L783.603 411.632L782.718 452.43C778.274 456.555 775.34 462.966 775.182 470.234C774.907 482.951 783.215 493.446 793.739 493.674C804.264 493.902 813.02 483.778 813.296 471.061C813.453 463.793 810.8 457.261 806.539 452.946Z" fill="#ED9DA0"/>
<path d="M919.497 54.5086C919.497 54.5086 953.69 54.4347 940.917 21.4876C928.143 -11.4596 904.358 3.29265 904.358 3.29265C904.358 3.29265 894.335 8.58657 896.402 20.3979" fill="#090814"/>
<path d="M922.919 70.3124C922.919 45.0515 902.441 24.5736 877.18 24.5736C851.919 24.5736 831.441 45.0515 831.441 70.3124C831.441 90.7989 844.911 108.137 863.476 113.96L872.319 172.396L917.395 134.833C917.395 134.833 907.657 122.43 902.435 108.444C914.778 100.253 922.919 86.2358 922.919 70.3124Z" fill="#ED9DA0"/>
<path d="M899.155 108.951C899.155 108.951 905.229 85.6634 895.297 74.9558C885.388 64.2726 884.108 80.8952 884.108 80.8952L876.958 79.3409C876.958 79.3409 878.202 63.1756 864.212 60.3777L873.228 41.1038C873.228 41.1038 838.712 47.8054 837.761 44.4624C830.275 18.159 901.686 -4.31031 921.413 35.8189C952.095 98.2332 899.155 108.951 899.155 108.951Z" fill="#090814"/>
<path d="M858.755 149.698C825.549 156.186 800.624 183.835 797.601 217.534L776.932 447.996H813.203L858.755 149.698Z" fill="#44B344"/>
<path d="M824.459 333.315L818.81 398.387L972.148 353.288L953.464 306.256L988.255 226.366L917.235 124.571L860.538 128.437L838.633 156.785" fill="#44B344"/>
<path d="M949.505 395.113L970.892 360.359L950.6 347.872L929.213 382.626C923.293 383.939 917.521 387.987 913.711 394.179C907.044 405.012 908.908 418.267 917.874 423.784C926.839 429.301 939.512 424.992 946.178 414.158C949.988 407.967 951.001 400.99 949.505 395.113Z" fill="#ED9DA0"/>
<path d="M905.638 125.86L918.002 125.347L939.14 141.322C964.188 145.594 971.452 146.791 979.127 163.337C982.352 170.289 984.489 177.696 985.685 185.266L1003.57 298.525L958.618 406.763L928.832 373.26L960.674 288.637L955.384 268.396" fill="#44B244"/>
</g>
<defs>
<clipPath id="clip0_3_2">
<rect width="1073" height="860" fill="white"/>
</clipPath>
</defs>
</svg>
